<svg xmlns="http://www.w3.org/2000/svg" xmlns:xlink="http://www.w3.org/1999/xlink" width="1938.001" height="118" viewBox="0 0 1938.001 118">
  <defs>
    <filter id="Union_2" x="0" y="0" width="1938.001" height="118" filterUnits="userSpaceOnUse">
      <feOffset dy="3" input="SourceAlpha"/>
      <feGaussianBlur stdDeviation="3" result="blur"/>
      <feFlood flood-opacity="0.161"/>
      <feComposite operator="in" in2="blur"/>
      <feComposite in="SourceGraphic"/>
    </filter>
  </defs>
  <g transform="matrix(1, 0, 0, 1, 0, 0)" filter="url(#Union_2)">
    <path id="Union_2-2" data-name="Union 2" d="M1894.791,100a25.007,25.007,0,0,1-24.5-19.99A25.008,25.008,0,0,1,1845.8,100h-.21a25.008,25.008,0,0,1-24.5-19.99,25.008,25.008,0,0,1-24.5,19.99h-.209a25.008,25.008,0,0,1-24.5-19.99,25.008,25.008,0,0,1-24.5,19.99h-.209a25.007,25.007,0,0,1-24.5-19.99,25.008,25.008,0,0,1-24.5,19.99h-.21a25.006,25.006,0,0,1-24.5-19.992,25.007,25.007,0,0,1-24.5,19.992h-.21a25.008,25.008,0,0,1-24.5-19.99,25.007,25.007,0,0,1-24.5,19.99h-.209a25.008,25.008,0,0,1-24.5-19.99,25.008,25.008,0,0,1-24.5,19.99h-.209a25.007,25.007,0,0,1-24.5-19.99,25.008,25.008,0,0,1-24.5,19.99h-.21a25.008,25.008,0,0,1-24.5-19.992,25.006,25.006,0,0,1-24.5,19.992h-.21a25.008,25.008,0,0,1-24.5-19.99,25.008,25.008,0,0,1-24.5,19.99h-.209a25.008,25.008,0,0,1-24.5-19.99,25.008,25.008,0,0,1-24.5,19.99h-.209a25.008,25.008,0,0,1-24.5-19.99,25.008,25.008,0,0,1-24.5,19.99h-.21a25.005,25.005,0,0,1-24.5-19.992,25.007,25.007,0,0,1-24.5,19.992h-.21a25.008,25.008,0,0,1-24.5-19.99,25.008,25.008,0,0,1-24.5,19.99h-.209a25.008,25.008,0,0,1-24.5-19.99,25.008,25.008,0,0,1-24.5,19.99h-.209a25.008,25.008,0,0,1-24.5-19.99,25.008,25.008,0,0,1-24.5,19.99h-.21a25.006,25.006,0,0,1-24.5-19.992,25.007,25.007,0,0,1-24.5,19.992h-.21a25.008,25.008,0,0,1-24.5-19.99,25.007,25.007,0,0,1-24.5,19.99h-.209a25.008,25.008,0,0,1-24.5-19.99A25.008,25.008,0,0,1,960.1,100H959.9a25.007,25.007,0,0,1-24.5-19.99A25.008,25.008,0,0,1,910.9,100h-.21a25.006,25.006,0,0,1-24.5-19.992A25.007,25.007,0,0,1,861.7,100h-.21a25.008,25.008,0,0,1-24.5-19.99,25.008,25.008,0,0,1-24.5,19.99h-.209a25.008,25.008,0,0,1-24.5-19.99,25.008,25.008,0,0,1-24.5,19.99h-.209a25.008,25.008,0,0,1-24.5-19.99A25.008,25.008,0,0,1,714.08,100h-.21a25.007,25.007,0,0,1-24.5-19.992A25.006,25.006,0,0,1,664.875,100h-.21a25.008,25.008,0,0,1-24.5-19.99,25.008,25.008,0,0,1-24.5,19.99h-.209a25.008,25.008,0,0,1-24.5-19.99,25.008,25.008,0,0,1-24.5,19.99h-.209a25.007,25.007,0,0,1-24.5-19.99A25.008,25.008,0,0,1,517.26,100h-.21a25.007,25.007,0,0,1-24.5-19.992A25.006,25.006,0,0,1,468.055,100h-.21a25.008,25.008,0,0,1-24.5-19.99,25.008,25.008,0,0,1-24.5,19.99h-.209a25.008,25.008,0,0,1-24.5-19.99,25.008,25.008,0,0,1-24.5,19.99h-.209a25.007,25.007,0,0,1-24.5-19.99A25.008,25.008,0,0,1,320.44,100h-.21a25.006,25.006,0,0,1-24.5-19.992A25.007,25.007,0,0,1,271.235,100h-.21a25.008,25.008,0,0,1-24.5-19.99,25.008,25.008,0,0,1-24.5,19.99h-.209a25.008,25.008,0,0,1-24.5-19.99,25.008,25.008,0,0,1-24.5,19.99h-.209a25.008,25.008,0,0,1-24.5-19.99,25.008,25.008,0,0,1-24.5,19.99h-.21a25.007,25.007,0,0,1-24.5-19.992A25.007,25.007,0,0,1,74.414,100h-.209a25.008,25.008,0,0,1-24.5-19.99A25.008,25.008,0,0,1,25.209,100H25A25,25,0,0,1,0,75V0H1920V24.79q0,.1,0,.21V75a25,25,0,0,1-25,25Z" transform="translate(9 6)" fill="#f9d5d5"/>
  </g>
</svg>
